<?xml version="1.0" encoding="utf-8"?>
<!-- Generator: Adobe Illustrator 15.0.0, SVG Export Plug-In . SVG Version: 6.00 Build 0)  -->
<!DOCTYPE svg PUBLIC "-//W3C//DTD SVG 1.1//EN" "http://www.w3.org/Graphics/SVG/1.1/DTD/svg11.dtd">
<svg version="1.1"
	 id="svg2" xmlns:inkscape="http://www.inkscape.org/namespaces/inkscape" xmlns:sodipodi="http://sodipodi.sourceforge.net/DTD/sodipodi-0.dtd" xmlns:svg="http://www.w3.org/2000/svg" xmlns:rdf="http://www.w3.org/1999/02/22-rdf-syntax-ns#" xmlns:cc="http://creativecommons.org/ns#" xmlns:dc="http://purl.org/dc/elements/1.1/"
	 xmlns="http://www.w3.org/2000/svg" xmlns:xlink="http://www.w3.org/1999/xlink" x="0px" y="0px" width="256px" height="256px"
	 viewBox="0 0 256 256" enable-background="new 0 0 256 256" xml:space="preserve">
<path id="rect1942" fill="#E6E6E6" d="M210.018,10.505H45.983c-19.599,0-35.487,15.888-35.487,35.487v164.015
	c0,19.599,15.888,35.486,35.487,35.486h164.033c19.604,0,35.487-15.888,37.487-34.819V46.66
	C245.504,26.394,229.615,10.505,210.018,10.505z"/>
<g id="g56795" transform="matrix(5.851668,0,0,5.851668,-1804.232,-2724.1)">
	<g id="g56770">
		<path id="path1883" fill="#5BA528" d="M320.601,487.545l-0.579-0.577c-1.796-1.796-2.352-4.366-1.672-6.643
			c-1.796-0.404-3.139-2.011-3.139-3.933c0-2.224,1.804-4.032,4.03-4.032c2.003,0,3.667,1.463,3.978,3.378
			c2.176-0.508,4.557,0.081,6.251,1.78l0.23,0.229l-2.976,2.974l-0.229-0.23c-0.965-0.963-2.529-0.963-3.496,0
			c-0.967,0.967-0.965,2.539-0.004,3.5l0.581,0.579l2.976,2.972l3.147,3.145l-2.972,2.974l-3.151-3.147l-2.974-2.974"/>
		<path id="path1885" fill="#FC8D30" d="M323.928,484.22l3.149-3.147l2.976-2.972l0.579-0.577c1.79-1.79,4.344-2.353,6.611-1.686
			c0.27-1.962,1.956-3.476,3.994-3.476c2.226,0,4.032,1.804,4.032,4.033c0,2.046-1.524,3.736-3.5,3.996
			c0.648,2.259,0.083,4.792-1.694,6.574l-0.23,0.232l-2.972-2.974l0.228-0.229c0.965-0.965,0.965-2.531,0-3.496
			c-0.961-0.961-2.523-0.963-3.492,0.004l-0.579,0.579l-2.976,2.974l-3.147,3.143l-2.976-2.972"/>
		<path id="path1887" fill="#E72524" d="M337.328,499.232c-2.288,0.703-4.88,0.148-6.692-1.66l-0.228-0.228l2.972-2.976l0.227,0.228
			c0.965,0.965,2.531,0.965,3.496,0c0.961-0.963,0.963-2.523-0.004-3.494l-0.581-0.581l-2.972-2.976l-3.141-3.143l2.976-2.972
			l3.138,3.143l2.972,2.974l0.583,0.585c1.709,1.708,2.302,4.116,1.767,6.306c1.958,0.274,3.464,1.958,3.464,3.992
			c0,2.226-1.806,4.03-4.031,4.03c-1.952,0-3.579-1.383-3.951-3.226"/>
		<path id="path1889" fill="#0E6DAB" d="M336.168,490.875l-3.139,3.142l-2.972,2.976l-0.583,0.581
			c-1.717,1.719-4.14,2.302-6.338,1.757c-0.408,1.79-2.013,3.126-3.929,3.126c-2.227,0-4.032-1.804-4.032-4.03
			c0-1.905,1.323-3.504,3.1-3.925c-0.561-2.208,0.018-4.65,1.749-6.379l0.227-0.225l2.976,2.972l-0.23,0.227
			c-0.965,0.965-0.963,2.529,0,3.496c0.967,0.967,2.537,0.965,3.5,0.004l0.581-0.581l2.972-2.974l3.141-3.144l2.972,2.974"/>
	</g>
</g>
<g>
	
		<linearGradient id="SVGID_1_" gradientUnits="userSpaceOnUse" x1="103.3599" y1="1332.9465" x2="103.3599" y2="1440.4574" gradientTransform="matrix(1 0 0 1 25.6401 -1194.9453)">
		<stop  offset="0" style="stop-color:#000000;stop-opacity:0.15"/>
		<stop  offset="0.6626" style="stop-color:#000000;stop-opacity:0"/>
	</linearGradient>
	<path fill="url(#SVGID_1_)" d="M10.496,115.401v94.605c0,19.6,15.888,35.486,35.487,35.486h164.033
		c19.604,0,35.488-15.889,37.488-34.819v-95.952c-36.779,15.181-77.074,23.576-119.337,23.576
		C86.542,138.298,46.825,130.153,10.496,115.401z"/>
</g>
<g>
	<g>
		<g>
			<path fill="none" stroke="#B8B8B8" stroke-width="2" stroke-miterlimit="10" d="M10.496,115.401v94.605
				c0,19.6,15.888,35.486,35.486,35.486h164.034c19.604,0,35.487-15.889,37.487-34.819v-95.952"/>
		</g>
	</g>
</g>
<linearGradient id="SVGID_2_" gradientUnits="userSpaceOnUse" x1="103.3594" y1="1206.1125" x2="103.3594" y2="1333.7406" gradientTransform="matrix(1 0 0 1 25.6401 -1194.9453)">
	<stop  offset="0" style="stop-color:#FFFFFF;stop-opacity:0.85"/>
	<stop  offset="0.66" style="stop-color:#FFFFFF;stop-opacity:0"/>
</linearGradient>
<path fill="url(#SVGID_2_)" d="M210.018,10.505H45.983c-19.599,0-35.487,15.889-35.487,35.487v69.409
	c36.33,14.751,76.046,22.896,117.671,22.896c42.263,0,82.558-8.395,119.336-23.576V46.66
	C245.504,26.394,229.615,10.505,210.018,10.505z"/>
<path fill="none" stroke="#E6E6E6" stroke-width="2" stroke-miterlimit="10" d="M247.503,114.721V46.66
	c-1.999-20.266-17.888-36.155-37.485-36.155H45.982c-19.599,0-35.486,15.889-35.486,35.487v69.409"/>
</svg>
