<?xml version="1.0" standalone="no"?>
<!DOCTYPE svg PUBLIC "-//W3C//DTD SVG 20010904//EN"
 "http://www.w3.org/TR/2001/REC-SVG-20010904/DTD/svg10.dtd">
<svg version="1.0" xmlns="http://www.w3.org/2000/svg"
 width="128.000000pt" height="128.000000pt" viewBox="0 0 128.000000 128.000000"
 preserveAspectRatio="xMidYMid meet">
<metadata>
Created by potrace 1.15, written by Peter Selinger 2001-2017
</metadata>
<g transform="translate(0.000000,128.000000) scale(0.100000,-0.100000)"
fill="#000000" stroke="none">
<path d="M212 1079 c-127 -125 -185 -265 -184 -449 0 -164 61 -308 182 -428
30 -28 59 -52 65 -52 7 0 61 51 120 114 l107 114 40 -14 c52 -18 144 -18 196
0 l41 15 108 -115 c58 -62 112 -114 118 -114 6 0 35 24 65 52 124 122 183 267
182 448 0 114 -25 203 -83 302 -39 64 -142 178 -162 178 -5 0 -60 -52 -121
-116 l-111 -116 -37 16 c-47 20 -142 21 -196 2 l-41 -15 -108 115 c-58 62
-112 114 -118 114 -6 0 -35 -23 -63 -51z m118 -100 c25 -21 45 -47 45 -56 0
-8 34 -47 76 -84 l76 -69 44 20 c58 26 86 25 144 -4 l48 -25 126 125 126 126
38 -43 c109 -123 146 -338 87 -506 -22 -64 -102 -191 -126 -200 -15 -6 -117
81 -106 92 7 6 -45 62 -109 116 l-47 39 -43 -20 c-58 -26 -95 -25 -145 4 l-42
24 -123 -124 c-68 -68 -129 -124 -135 -124 -19 0 -102 130 -124 193 -41 116
-36 275 11 383 27 61 106 174 122 174 7 0 32 -19 57 -41z"/>
</g>
</svg>
